# xmcd CD database file
# Copyright (C) 1993-1996 Ti Kan
#
# Track frame offsets:
# 150
# 12765
# 26717
# 36442
# 48075
# 59565
# 70517
# 80872
#
# Disc length: 1259 seconds
#
# Revision: 0
# Processed by: cddbd v1.4b41PL1 Copyright (c) Steve Scherf et al.
# Submitted via: inCDius 1.1b5
#
DISCID=6504e908
DTITLE=George Jones - Wishing And Dreaming With
DYEAR=1900
DGENRE=
TTITLE0=She Thinks I Still Care
TTITLE1=All I Have To Offer You Is Me
TTITLE2=Sweet Dreams
TTITLE3=Even The Bad Times Are Good
TTITLE4=Window Up Above
TTITLE5=Ruby, Don't Take Your Love To Town
TTITLE6=Don't You Ever Get Tired Of Hurting Me
TTITLE7=Wedding Bells
EXTD=
EXTT0=
EXTT1=
EXTT2=
EXTT3=
EXTT4=
EXTT5=
EXTT6=
EXTT7=
PLAYORDER=
